<?xml version="1.0" standalone="no"?>
<!DOCTYPE svg PUBLIC "-//W3C//DTD SVG 20010904//EN"
 "http://www.w3.org/TR/2001/REC-SVG-20010904/DTD/svg10.dtd">
<svg version="1.0" xmlns="http://www.w3.org/2000/svg"
 width="1280.000000pt" height="700.000000pt" viewBox="0 0 1280.000000 700.000000"
 preserveAspectRatio="xMidYMid meet">

<g transform="translate(0.000000,700.000000) scale(0.100000,-0.100000)"
fill="#000000" stroke="none">
<path d="M3690 4818 c-66 -34 -82 -72 -120 -288 -17 -102 -47 -270 -65 -375
-19 -104 -49 -280 -69 -390 -19 -110 -46 -265 -61 -345 -55 -310 -101 -572
-210 -1190 -19 -107 -48 -272 -65 -365 -38 -216 -38 -238 -2 -275 39 -39 71
-42 392 -38 299 3 313 6 359 63 23 30 27 47 82 360 75 430 89 498 107 529 9
17 38 41 62 54 44 22 51 23 310 20 292 -3 312 -7 327 -66 6 -26 -17 -174 -97
-627 -41 -227 -41 -261 -2 -296 42 -38 75 -41 393 -37 275 3 276 3 312 28 20
14 44 40 52 58 9 18 29 108 46 200 48 269 96 540 139 787 40 226 75 426 144
815 19 107 53 301 76 430 23 129 57 321 75 425 50 278 75 429 75 453 0 12 -13
36 -29 54 l-29 33 -299 3 c-315 4 -357 -1 -401 -41 -39 -36 -49 -65 -77 -222
-14 -83 -42 -235 -60 -340 -19 -104 -46 -257 -60 -340 -15 -82 -37 -210 -50
-283 -25 -143 -38 -172 -88 -202 -30 -19 -52 -20 -313 -20 -379 0 -367 -10
-315 276 17 93 49 275 72 404 22 129 56 320 75 424 38 212 41 261 18 295 -33
47 -62 51 -372 51 -279 0 -289 -1 -332 -22z"/>
<path d="M6171 4823 c-58 -29 -78 -73 -105 -233 -14 -80 -37 -205 -51 -279
-14 -73 -25 -149 -25 -168 0 -40 22 -87 47 -99 10 -5 420 -11 911 -14 l894 -5
24 -28 c31 -36 31 -55 -7 -267 -17 -96 -41 -238 -55 -315 -13 -77 -37 -212
-54 -300 -16 -88 -47 -266 -70 -395 -60 -341 -117 -662 -151 -844 -36 -199
-37 -245 -5 -283 l24 -28 322 -3 c316 -3 321 -2 360 19 52 29 74 77 95 204 9
55 29 172 45 260 16 88 47 264 69 390 23 127 57 318 76 425 19 107 53 299 76
425 95 537 119 659 134 681 38 59 34 59 465 64 l395 5 31 24 c45 33 53 55 90
256 65 346 76 425 63 462 -22 68 115 63 -1816 63 -1604 0 -1751 -2 -1782 -17z"/>
<path d="M5983 3821 c-39 -24 -58 -60 -67 -126 -4 -27 -23 -135 -41 -240 -19
-104 -53 -292 -75 -417 -100 -567 -122 -693 -150 -848 -101 -568 -100 -554
-63 -599 28 -34 80 -41 350 -41 293 0 339 7 382 56 36 40 38 50 85 314 58 332
125 713 156 885 15 88 47 266 70 395 23 129 53 298 66 375 14 77 23 154 20
171 -4 17 -20 44 -37 60 l-30 29 -317 3 c-301 2 -319 1 -349 -17z"/>
<path d="M6954 3820 c-18 -12 -37 -33 -43 -48 -9 -23 -62 -304 -92 -487 -5
-33 -25 -148 -44 -255 -20 -107 -51 -283 -70 -390 -19 -107 -46 -260 -60 -340
-79 -440 -98 -551 -102 -612 -5 -64 -4 -69 24 -97 40 -40 71 -43 388 -39 279
3 294 5 335 47 36 37 43 57 70 213 16 90 47 269 70 398 23 129 57 321 75 425
18 105 52 296 75 425 124 698 122 683 94 726 -35 52 -48 54 -381 54 -291 0
-310 -1 -339 -20z"/>
</g>
</svg>
